<?xml version="1.0" encoding="UTF-8"?>
<!-- Generator: Adobe Illustrator 24.1.2, SVG Export Plug-In . SVG Version: 6.00 Build 0)  -->
<svg version="1.1" id="Layer_1" xmlns="http://www.w3.org/2000/svg" xmlns:xlink="http://www.w3.org/1999/xlink" x="0px" y="0px" viewBox="0 0 314 74" style="enable-background:new 0 0 314 74;" xml:space="preserve">
<style type="text/css">
	.st0{fill:#5CB28F;}
	.st1{fill-rule:evenodd;clip-rule:evenodd;fill:#5CB28F;}
</style>
<g>
	<path class="st0" d="M56.1,56.1H36.9c-10.6,0-19.1-8.6-19.1-19.1s8.6-19.1,19.1-19.1h36.3v4H36.9c-8.3,0-15.1,6.8-15.1,15.1   s6.8,15.1,15.1,15.1h19.1V56.1z"/>
	<path class="st0" d="M73.2,73.2H36.9C16.9,73.2,0.7,57,0.7,37S16.9,0.7,36.9,0.7h36.3v4H36.9C19.2,4.7,4.7,19.2,4.7,37   s14.5,32.2,32.2,32.2h32.2V39H36.9c-1.1,0-2-0.9-2-2s0.9-2,2-2h36.3V73.2z"/>
	<g>
		<polygon class="st0" points="99.5,55.2 97.5,55.2 97.5,73.1 107.6,73.1 107.6,71.3 99.5,71.3   "/>
		<path class="st0" d="M133.6,55.2l-7.3,17.9h2.1l2.1-5.3h7.9l2.1,5.3h2.1l-7.3-17.9H133.6z M131.2,66.1l3.3-8.1c0,0,0,0,0,0    l3.3,8.1H131.2z"/>
		<polygon class="st0" points="175.9,69.6 171,55.2 169.4,55.2 164.5,69.6 160.1,55.2 157.9,55.2 163.5,72.8 163.5,73.1 164.4,73.1     164.4,73.2 164.5,73.1 165.2,73.1 170.1,58.5 175.1,73.1 176.8,73.1 182.4,55.2 180.3,55.2   "/>
		<path class="st0" d="M207,63.6c-0.1,0.1-0.1,0.2-0.2,0.3c-0.1-0.1-0.1-0.2-0.2-0.3l-5.2-8.3h-2.2l6.6,10.5v7.3h2v-7.3l6.6-10.5    h-2.3L207,63.6z"/>
		<polygon class="st0" points="236.3,64.9 243.7,64.9 243.7,63.2 236.3,63.2 236.3,57 245.3,57 245.3,55.2 234.3,55.2 234.3,73.1     245.3,73.1 245.3,71.3 236.3,71.3   "/>
		<path class="st0" d="M271.9,65.1c0.5-0.1,0.9-0.2,1.4-0.4c0.6-0.3,1.2-0.6,1.6-1.1c0.5-0.4,0.8-1,1.1-1.5c0.2-0.6,0.4-1.2,0.4-1.9    c0-1.6-0.5-2.8-1.6-3.7c-1-0.8-2.6-1.2-4.6-1.2h-4.8v17.9h2v-7.7h1.9c0.1,0,0.3,0,0.4,0c0.1,0,0.2,0,0.2,0.1c0,0,0.1,0,0.1,0.1    c0.1,0.1,0.1,0.1,0.2,0.2l5.8,7.4h2.4L271.9,65.1C271.9,65.1,271.9,65.1,271.9,65.1z M274.1,61.6c-0.2,0.4-0.5,0.8-0.8,1.1    c-0.4,0.3-0.8,0.5-1.4,0.7c-0.6,0.2-1.2,0.3-1.9,0.3h-2.6V57h2.8c1.4,0,2.5,0.3,3.2,0.8c0.7,0.5,1,1.3,1,2.4    C274.3,60.7,274.3,61.2,274.1,61.6z"/>
		<path class="st0" d="M305.4,65.8c-0.3-0.5-0.6-1-1.1-1.3c-0.4-0.3-0.9-0.6-1.5-0.9c-0.5-0.2-1.1-0.4-1.6-0.6    c-0.5-0.2-1.1-0.4-1.6-0.5c-0.5-0.2-0.9-0.4-1.3-0.6c-0.4-0.2-0.6-0.5-0.9-0.9c-0.2-0.3-0.3-0.7-0.3-1.2c0-0.4,0.1-0.8,0.2-1.1    c0.1-0.4,0.4-0.7,0.6-0.9c0.3-0.3,0.6-0.5,1.1-0.6c0.9-0.3,2.2-0.3,2.9,0c0.4,0.1,0.7,0.3,1,0.5c0.3,0.2,0.5,0.3,0.6,0.5l0.9,0.8    l0.9-1.7l-0.2-0.2c-0.6-0.6-1.3-1.1-2.1-1.4c-0.7-0.3-1.6-0.5-2.5-0.5c-0.8,0-1.6,0.1-2.2,0.4c-0.7,0.3-1.2,0.6-1.7,1.1    c-0.5,0.4-0.8,1-1,1.5c-0.2,0.6-0.4,1.2-0.4,1.8c0,0.8,0.1,1.5,0.4,2c0.3,0.5,0.6,1,1.1,1.3c0.4,0.3,0.9,0.6,1.5,0.9    c0.5,0.2,1.1,0.4,1.6,0.6c0.5,0.2,1.1,0.3,1.6,0.5c0.5,0.2,0.9,0.4,1.3,0.6c0.4,0.2,0.6,0.5,0.9,0.9c0.2,0.3,0.3,0.8,0.3,1.3    c0,0.5-0.1,1-0.3,1.4c-0.2,0.4-0.4,0.8-0.8,1.1c-0.3,0.3-0.7,0.6-1.2,0.8c-0.5,0.2-1,0.3-1.7,0.3c-0.5,0-0.9,0-1.2-0.1    c-0.4-0.1-0.7-0.2-1-0.3c-0.3-0.1-0.5-0.3-0.7-0.4c-0.2-0.2-0.4-0.3-0.6-0.4l-0.4-0.4c-0.1-0.1-0.4-0.3-0.4-0.3l-0.3-0.3l-1,1.5    l0.2,0.2c0.6,0.7,1.4,1.3,2.3,1.7c0.9,0.4,1.9,0.6,3.1,0.6c0.9,0,1.7-0.1,2.5-0.4c0.7-0.3,1.3-0.7,1.8-1.2    c0.5-0.5,0.9-1.1,1.2-1.8c0.3-0.7,0.4-1.4,0.4-2.2S305.6,66.3,305.4,65.8z"/>
	</g>
	<g>
		<path class="st0" d="M111.8,23.6h7.5v8.8c-0.7,0.4-1.4,0.7-2,1.1c-0.7,0.4-1.5,0.6-2.3,0.9c-0.8,0.2-1.6,0.4-2.5,0.6    c-0.9,0.1-1.8,0.2-2.9,0.2c-2.3,0-4.5-0.4-6.3-1.1c-1.9-0.7-3.4-1.7-4.7-3.1c-1.3-1.3-2.3-3-3-4.9c-0.7-1.9-1-4.1-1-6.6    c0-2.4,0.3-4.6,1-6.5c0.7-1.9,1.7-3.5,2.9-4.9c1.3-1.3,2.8-2.3,4.6-3.1c1.8-0.7,3.9-1.1,6.1-1.1c1.7,0,3.1,0.2,4.3,0.5    c1.2,0.3,2.2,0.7,3,1c0.8,0.4,1.4,0.8,1.8,1.1c0.5,0.4,1.6,1.3,1.6,1.3l0.4,0.3l1.8-2.8l-0.3-0.3c-0.8-0.7-1.7-1.3-2.5-1.9    c-0.9-0.5-1.8-1-2.9-1.4c-1-0.4-2.1-0.7-3.3-0.8c-1.2-0.2-2.5-0.3-3.8-0.3c-2.8,0-5.4,0.4-7.6,1.3c-2.3,0.9-4.2,2.2-5.8,3.8    c-1.6,1.6-2.8,3.6-3.7,5.9c-0.8,2.3-1.3,4.9-1.3,7.7c0,2.8,0.4,5.4,1.3,7.7c0.9,2.3,2.1,4.3,3.8,5.9c1.6,1.6,3.6,2.9,5.9,3.8    c2.3,0.9,4.9,1.3,7.8,1.3c2.6,0,4.9-0.3,7-1c2.1-0.7,4-1.7,5.8-3l0.2-0.2V20.6h-10.8V23.6z"/>
		<path class="st0" d="M142.5,11.4c-1.5-0.3-3.2-0.2-4.5,0.3c-0.9,0.3-1.6,0.8-2.3,1.4c-0.7,0.6-1.3,1.3-1.8,2.1    c-0.1,0.2-0.2,0.3-0.3,0.4v-4h-3.4v26.1h3.4V21.1c0.4-1.1,0.7-2,1.2-2.8c0.4-0.8,0.9-1.5,1.5-2c0.5-0.5,1.2-0.9,1.8-1.2    c0.7-0.3,1.5-0.4,2.4-0.4c0.6,0,1.1,0.1,1.5,0.2c0.4,0.1,1.3,0.4,1.3,0.4l0.6,0.1l0.4-3.1L144,12C143.6,11.7,143,11.5,142.5,11.4z    "/>
		<path class="st0" d="M166.1,14.1c-0.8-0.8-1.6-1.4-2.5-1.9c-1.3-0.7-2.9-1-4.6-1c-1.8,0-3.5,0.4-4.9,1.1c-1.4,0.7-2.6,1.7-3.6,2.9    c-1,1.2-1.7,2.7-2.2,4.3c-0.5,1.6-0.7,3.4-0.7,5.3c0,4.4,0.9,7.7,2.7,9.9c1.8,2.2,4.4,3.4,7.6,3.4c1.9,0,3.7-0.5,5.2-1.4    c1.1-0.7,2.2-1.6,3.1-2.6v3.7h3.3V11.7h-3.4V14.1z M166.1,17.8v12.9c-1,1.4-2.1,2.5-3.4,3.3c-1.3,0.8-2.7,1.2-4.2,1.2    c-2.4,0-4.3-0.8-5.5-2.4c-1.3-1.7-1.9-4.3-1.9-7.9c0-1.6,0.2-3.1,0.5-4.4c0.4-1.3,0.9-2.4,1.6-3.4c0.7-0.9,1.6-1.6,2.6-2.1    c1-0.5,2.3-0.8,3.7-0.8c1.4,0,2.7,0.3,3.8,0.8C164.2,15.5,165.2,16.5,166.1,17.8z"/>
		<path class="st0" d="M195.5,14c-0.7-0.9-1.7-1.6-2.8-2c-1.1-0.5-2.4-0.7-3.8-0.7c-1.9,0-3.7,0.5-5.3,1.4c-1.2,0.7-2.3,1.5-3.3,2.6    v-3.5H177v26.1h3.4V18.6c1-1.4,2.2-2.4,3.5-3.2c1.3-0.8,2.8-1.2,4.3-1.2c2.1,0,3.5,0.6,4.5,1.8c1,1.2,1.5,3,1.5,5.2v16.5h3.4V21.3    c0-1.5-0.2-2.9-0.6-4.1C196.8,16,196.3,14.9,195.5,14z"/>
		<path class="st0" d="M215.2,33.9c-0.2,0.2-0.4,0.3-0.7,0.5c-0.3,0.2-0.6,0.4-1,0.5c-0.7,0.3-1.7,0.3-2.6,0    c-0.4-0.1-0.6-0.3-0.9-0.6c-0.3-0.3-0.5-0.6-0.6-1c-0.2-0.4-0.2-1-0.2-1.6V13.6h7.9v-2.8h-7.9V2.9h-3.4v7.9h-4.3v2.8h4.2v18.3    c0,2.1,0.5,3.7,1.6,4.7c1,1,2.5,1.6,4.3,1.6c1.1,0,2.2-0.2,3.3-0.7c1-0.5,1.9-1.1,2.6-1.8l0.3-0.3l-1.5-2.4L215.2,33.9z"/>
		<path class="st0" d="M245,28.7c0.4-1.2,0.6-2.5,0.7-3.7l0-0.8h-2.9l-0.1,0.4c0,0-0.1,0.6-0.1,0.8c-0.1,0.8-0.3,1.6-0.6,2.5    c-0.2,0.5-0.4,1.1-0.7,1.6l-7.2-7c-1-1-1.7-1.9-2.2-2.7c-0.4-0.8-0.6-1.6-0.6-2.4c0-0.5,0.1-1,0.3-1.5c0.2-0.4,0.4-0.8,0.8-1.1    c0.3-0.3,0.7-0.6,1.2-0.8c0.9-0.4,2.3-0.4,3.1,0c0.4,0.2,0.8,0.4,1.1,0.7c0.3,0.3,0.5,0.6,0.7,0.9c0.3,0.7,0.5,1.7,0.5,1.7    l0.1,0.5l2.8-0.6l0-0.4c0-0.7-0.2-1.7-0.6-2.5c-0.4-0.7-0.8-1.3-1.4-1.8c-0.6-0.5-1.3-0.9-2.1-1.2c-1.7-0.7-3.8-0.6-5.4,0    c-0.9,0.3-1.6,0.8-2.3,1.4c-0.6,0.6-1.1,1.3-1.5,2.1c-0.3,0.8-0.5,1.7-0.5,2.6c0,1.1,0.2,2.2,0.7,3.2c0.3,0.7,0.8,1.4,1.3,2.1    c-0.5,0.3-1,0.6-1.5,0.9c-0.8,0.5-1.5,1.2-2.1,1.9c-0.6,0.7-1,1.5-1.4,2.3c-0.3,0.9-0.5,1.8-0.5,2.7c0,1.2,0.2,2.3,0.7,3.2    c0.5,0.9,1.1,1.7,1.8,2.4c0.8,0.6,1.6,1.1,2.6,1.4c0.9,0.3,1.9,0.5,2.9,0.5c1,0,2-0.1,2.9-0.3c0.9-0.2,1.8-0.5,2.6-0.9    c0.8-0.4,1.5-0.9,2.2-1.4c0.4-0.4,0.9-0.7,1.3-1.2l3.7,3.6h4.5l-6.2-6.1C244.2,30.7,244.7,29.7,245,28.7z M239.6,32.1    c-0.3,0.3-0.6,0.6-0.9,0.9c-0.5,0.4-1,0.8-1.6,1.1c-0.6,0.3-1.2,0.5-1.9,0.7c-1.4,0.4-2.7,0.4-3.9,0c-0.6-0.2-1.1-0.5-1.6-0.9    c-0.5-0.4-0.9-0.9-1.2-1.4c-0.3-0.6-0.4-1.2-0.4-2c0-0.6,0.1-1.2,0.3-1.7c0.2-0.6,0.5-1.1,0.9-1.6c0.4-0.5,0.9-1,1.4-1.4    c0.4-0.3,0.9-0.6,1.5-0.9L239.6,32.1z"/>
		<path class="st0" d="M280.8,30.7c0,0-0.5,0.4-0.6,0.5c-0.7,0.6-1.4,1.2-2.1,1.7c-0.7,0.5-1.4,0.9-2.2,1.2    c-0.8,0.3-1.7,0.6-2.7,0.7c-1,0.2-2.1,0.2-3.3,0.2c-1.9,0-3.8-0.4-5.4-1.1c-1.7-0.7-3.1-1.7-4.3-3c-1.2-1.3-2.2-2.9-2.9-4.9    c-0.7-1.9-1.1-4.1-1.1-6.6c0-2.4,0.4-4.6,1.1-6.5c0.7-1.9,1.7-3.5,2.9-4.9c1.2-1.3,2.7-2.3,4.4-3.1c1.7-0.7,3.6-1.1,5.7-1.1    c1.6,0,3,0.2,4.2,0.5c1.2,0.4,2.1,0.8,2.9,1.2c0.8,0.4,1.4,0.8,1.8,1.2c0.4,0.4,1.1,1,1.1,1l0.4,0.4l1.9-2.7l-0.3-0.3    c-1.6-1.4-3.4-2.5-5.3-3.3c-1.9-0.8-4.2-1.2-6.7-1.2c-2.6,0-5,0.5-7.2,1.4c-2.2,0.9-4.1,2.2-5.6,3.8c-1.5,1.6-2.8,3.6-3.6,5.9    c-0.9,2.3-1.3,4.8-1.3,7.6c0,2.8,0.4,5.4,1.3,7.7c0.8,2.3,2,4.3,3.5,5.9c1.5,1.6,3.4,2.9,5.5,3.8c2.1,0.9,4.5,1.3,7,1.3    c1.5,0,2.9-0.1,4.2-0.4c1.3-0.2,2.4-0.6,3.5-1.1c1.1-0.5,2.1-1,2.9-1.7c0.9-0.6,1.7-1.4,2.5-2.2l0.3-0.3l-2-2.2L280.8,30.7z"/>
		<path class="st0" d="M311.1,19.3c-0.5-1.6-1.3-3.1-2.3-4.2c-1-1.2-2.3-2.1-3.8-2.7c-1.5-0.6-3.2-1-5-1c-1.9,0-3.5,0.3-5,1    c-1.5,0.6-2.8,1.6-3.8,2.7c-1,1.2-1.8,2.6-2.3,4.2c-0.5,1.6-0.8,3.5-0.8,5.5s0.3,3.8,0.8,5.5c0.5,1.6,1.3,3.1,2.3,4.2    c1,1.2,2.3,2.1,3.8,2.7c1.5,0.6,3.2,0.9,5,0.9c1.9,0,3.5-0.3,5-0.9c1.5-0.6,2.8-1.5,3.8-2.7c1-1.2,1.8-2.6,2.3-4.2    c0.5-1.6,0.8-3.5,0.8-5.5S311.6,20.9,311.1,19.3z M308.4,24.7c0,1.6-0.2,3.1-0.5,4.4c-0.4,1.3-0.9,2.4-1.6,3.3    c-0.7,0.9-1.6,1.6-2.6,2.1c-1,0.5-2.3,0.7-3.7,0.7c-1.4,0-2.7-0.2-3.7-0.7c-1-0.5-1.9-1.2-2.6-2.1c-0.7-0.9-1.2-2-1.6-3.3    c-0.4-1.3-0.5-2.8-0.5-4.4c0-1.6,0.2-3.1,0.5-4.4c0.4-1.3,0.9-2.4,1.6-3.3c0.7-0.9,1.6-1.6,2.6-2.1c1-0.5,2.3-0.7,3.7-0.7    c1.4,0,2.7,0.2,3.7,0.7c1,0.5,1.9,1.2,2.6,2.1c0.7,0.9,1.2,2,1.6,3.3C308.2,21.7,308.4,23.1,308.4,24.7z"/>
	</g>
	<rect x="89.5" y="46.6" class="st1" width="223.9" height="1.3"/>
</g>
</svg>